<svg xmlns="http://www.w3.org/2000/svg" viewBox="0 0 939.34 209.43"><title>logo</title><g id="Layer_2" data-name="Layer 2"><g id="Layer_1-2" data-name="Layer 1"><path d="M29.89,105.92v.63l60.41,21.29v28.52L0,117.88V94.07L90.29,55.69V84.21Z"/><path d="M268.37,68.59l-11.43,1.47-23.7,93.55H207.64L186.57,96.06h-.63L164.86,163.6H139.37L115.57,70.05l-11.43-1.47V50.13h51.39V68.59l-12.06,2.31,10.7,51.91h.63L176,50.13h20.55L217.92,123h.63l10.59-52L217,68.59V50.13h51.39Z"/><path d="M269.6,18.46V0h46.88V94.8h6.82l17.62-24.85-10-1.36V50.13h55.79V68.59l-13.42,3L352.87,99.73l28.63,43.1,11.64,2.41V163.6H340.7V145.25l6.29-1-17.41-28.11H316.48v26l13.21,3.15V163.6H271.17V145.25L286,142.1V21.6Z"/><path d="M402.89,145.25l14.79-3.15V71.73l-16.36-3.15V50.13h47v92L463,145.25V163.6H402.89ZM448.3,23H417.68V0H448.3Z"/><path d="M471.37,145.25l14.68-3.15V71.73L469.8,68.59V50.13h44.78l1.36,16.26a41.51,41.51,0,0,1,13.95-13.53A36.21,36.21,0,0,1,548.45,48q17.2,0,26.85,10.8t9.65,33.87V142.1l14.68,3.15V163.6H541.11V145.25l13.11-3.15V92.81q0-11.43-4.61-16.2t-13.95-4.77a23.64,23.64,0,0,0-10.91,2.46,22.42,22.42,0,0,0-8.08,7V142.1l12.37,3.15V163.6H471.37Z"/><path d="M605.22,107.81q0-26.84,11.69-43.31T649.69,48a32.54,32.54,0,0,1,16.78,4.25,37.48,37.48,0,0,1,12.37,12.11L681,50.13h26.64V160.24q0,22.44-14.11,35.81t-38.75,13.37a76.91,76.91,0,0,1-18.25-2.36,84.7,84.7,0,0,1-17.83-6.45l5.66-21.5a97.24,97.24,0,0,0,14.68,5,63.87,63.87,0,0,0,15.52,1.84q11.22,0,16.78-6.82t5.56-19v-7.45a34.25,34.25,0,0,1-11.85,9.75,35,35,0,0,1-15.63,3.36q-20.87,0-32.56-15.36T605.22,110Zm30.62,2.2q0,14.89,5,23.44T657.24,142a25.26,25.26,0,0,0,11.9-2.57,19.62,19.62,0,0,0,7.81-7.5V82.64a21.15,21.15,0,0,0-7.81-8,22.9,22.9,0,0,0-11.69-2.83q-11.22,0-16.41,10t-5.19,26Z"/><path d="M792.31,176.71H769.66l56-165.8h22.65Z"/><path d="M909.35,107.07v-.63L848,84.84V56.63L939.34,95v23.81L848,157.31V129Z"/></g></g></svg>