<svg xmlns="http://www.w3.org/2000/svg" viewBox="0 0 337.46 153.47"><defs><style>.cls-1{fill:#ff8c42;}.cls-2{fill:#e33532;}.cls-3,.cls-4{fill:none;stroke:#282d33;stroke-linecap:round;stroke-linejoin:round;}.cls-3{stroke-width:7.42px;}.cls-4{stroke-width:14.8px;}</style></defs><title>logo_1</title><g id="Layer_2" data-name="Layer 2"><g id="Layer_4" data-name="Layer 4"><path class="cls-1" d="M164.66,11.61l43,55.5,51.19-28.2-18.59,94.32c-2.6,10.62-34.29,18.82-78.87,18.82s-70.72-11.9-73.32-22.52L70.53,44.14l47.25,26.12Z"/><path class="cls-2" d="M245.9,129.11c0,9.32-34.51,17.19-77.09,17.19s-77.09-9.85-77.09-17.19c0-7.78,34.51-17,77.09-17S245.9,119.79,245.9,129.11Z"/><path class="cls-3" d="M100,118.36c20.55-6.85,44.53-9.82,68.78-9.82,44.58,0,80.72,9.23,80.72,20.61s-36.14,20.61-80.72,20.61-78.12-10-80.72-20.61L68.36,33.47l54.19,29.76L168.81,3.71l46.26,59.52,54.19-29.76L252.92,112.7"/><polyline class="cls-4" points="27.16 111.43 7.4 91.67 27.16 71.44"/><polyline class="cls-4" points="310.3 71.44 330.06 91.2 310.3 111.43"/></g></g></svg>