<?xml version="1.0" standalone="no"?>
<!DOCTYPE svg PUBLIC "-//W3C//DTD SVG 20010904//EN"
 "http://www.w3.org/TR/2001/REC-SVG-20010904/DTD/svg10.dtd">
<svg version="1.0" xmlns="http://www.w3.org/2000/svg"
 width="296.000000pt" height="296.000000pt" viewBox="0 0 296.000000 296.000000"
 preserveAspectRatio="xMidYMid meet">
<metadata>
Created by potrace 1.11, written by Peter Selinger 2001-2013
</metadata>
<g transform="translate(0.000000,296.000000) scale(0.100000,-0.100000)"
fill="#000000" stroke="none">
<path d="M1258 2207 c-14 -12 -29 -35 -32 -50 -5 -23 -1 -34 24 -59 l31 -30
-32 -62 c-18 -33 -37 -71 -43 -84 -13 -27 -42 -38 -60 -22 -16 13 -28 50 -16
50 14 0 21 32 9 46 -16 20 -47 17 -59 -5 -7 -15 -6 -23 5 -34 12 -13 10 -20
-15 -61 -33 -51 -45 -57 -55 -24 -4 11 -19 42 -34 67 -26 45 -26 46 -9 81 17
33 17 35 0 53 -27 27 -59 29 -82 5 -11 -12 -18 -28 -17 -37 3 -19 26 -60 27
-47 0 5 7 3 15 -4 8 -7 13 -15 11 -19 -2 -3 -7 -35 -11 -71 -4 -36 -10 -69
-13 -75 -3 -5 -18 18 -34 50 -25 53 -26 61 -12 72 8 6 15 15 14 20 -3 15 -31
41 -43 39 -39 -6 -51 -48 -18 -65 17 -10 23 -29 38 -120 3 -21 -2 -56 -13 -87
-15 -46 -16 -57 -4 -81 20 -41 20 -52 2 -66 -20 -14 -22 -49 -5 -60 6 -4 11
-30 11 -60 0 -28 3 -69 7 -91 6 -28 4 -40 -6 -47 -37 -23 3 -234 49 -254 12
-5 22 -15 22 -20 0 -31 90 -187 125 -217 11 -10 31 -28 45 -39 25 -21 101 -60
130 -66 28 -6 135 -6 160 0 128 28 222 130 299 320 6 15 17 27 24 27 18 0 42
52 58 125 16 77 17 86 3 108 -19 29 -5 196 17 218 20 20 16 46 -8 66 -12 10
-12 16 3 45 23 42 23 56 3 94 -26 47 -5 175 33 202 36 26 13 77 -30 65 -16 -4
-22 -13 -22 -33 0 -16 5 -30 10 -32 11 -3 -32 -102 -49 -112 -11 -7 -20 32
-25 110 -3 43 0 52 17 60 12 5 24 21 28 36 14 54 -67 87 -96 39 -14 -23 -13
-33 3 -61 13 -24 11 -30 -23 -88 -34 -56 -39 -61 -50 -45 -18 27 -25 65 -15
78 12 15 1 55 -15 55 -29 0 -45 -13 -45 -36 0 -14 6 -24 15 -24 12 0 11 -5 -3
-30 -14 -25 -22 -29 -50 -27 -41 5 -43 6 -91 99 -37 73 -38 79 -22 90 59 42
40 129 -30 142 -17 3 -35 -3 -51 -17z"/>
<path d="M2060 1329 c-96 -287 -176 -526 -178 -530 -2 -5 29 -9 70 -9 l73 0
177 530 177 530 -72 0 -72 0 -175 -521z"/>
<path d="M550 1557 c-14 -6 -38 -16 -55 -23 -16 -6 -50 -21 -75 -31 -25 -11
-129 -55 -233 -99 l-187 -78 0 -76 0 -75 283 -119 c155 -66 286 -121 290 -123
4 -3 6 37 5 88 l-3 92 -80 29 c-44 15 -128 44 -187 64 -60 21 -108 41 -108 46
0 4 5 8 11 8 15 0 351 121 362 130 4 4 7 45 5 92 l-3 85 -25 -10z"/>
<path d="M2380 1470 c0 -64 4 -92 13 -95 117 -39 367 -131 367 -135 0 -3 -17
-12 -37 -19 -21 -7 -94 -33 -163 -58 -69 -25 -137 -50 -152 -55 -28 -10 -28
-11 -28 -100 0 -72 3 -89 14 -85 7 3 138 58 290 123 l276 117 0 76 0 77 -252
107 c-139 58 -270 113 -290 122 l-38 15 0 -90z"/>
</g>
</svg>
