<?xml version="1.0" standalone="no"?>
<!DOCTYPE svg PUBLIC "-//W3C//DTD SVG 20010904//EN"
 "http://www.w3.org/TR/2001/REC-SVG-20010904/DTD/svg10.dtd">
<svg version="1.0" xmlns="http://www.w3.org/2000/svg"
 width="1014.000000pt" height="1014.000000pt" viewBox="0 0 1014.000000 1014.000000"
 preserveAspectRatio="xMidYMid meet">
<metadata>
Created by potrace 1.11, written by Peter Selinger 2001-2013
</metadata>
<g transform="translate(0.000000,1014.000000) scale(0.100000,-0.100000)"
fill="#000000" stroke="none">
<path d="M5043 7361 c-13 -3 -31 -13 -41 -22 -10 -8 -314 -397 -677 -863 -362
-466 -664 -850 -670 -852 -6 -3 -360 187 -786 421 -572 314 -784 425 -808 425
-64 0 -111 -44 -111 -105 0 -37 588 -2885 605 -2931 49 -130 184 -242 413
-343 524 -230 1473 -357 2412 -321 435 16 722 43 1064 101 626 107 1019 278
1126 491 41 84 43 179 3 258 -152 305 -880 524 -1963 590 -238 15 -837 15
-1050 1 -594 -41 -1126 -134 -1546 -272 -78 -25 -116 -63 -118 -118 -1 -44 26
-89 62 -106 12 -5 22 -12 22 -15 0 -3 -21 -16 -47 -29 -67 -32 -141 -88 -157
-119 -13 -25 -14 -25 -25 28 -6 30 -117 565 -246 1190 -129 624 -246 1186
-260 1249 -14 62 -24 115 -21 118 3 3 326 -171 718 -387 492 -271 723 -393
744 -393 17 -1 43 7 57 16 19 12 1005 1272 1292 1651 20 26 41 44 45 40 19
-21 1267 -1632 1283 -1656 9 -15 27 -33 39 -39 57 -31 68 -26 703 324 336 184
654 360 708 392 54 31 101 55 106 53 4 -2 -91 -475 -210 -1053 -120 -577 -218
-1072 -218 -1098 -1 -41 4 -53 28 -78 56 -56 156 -32 180 44 6 17 121 567 256
1222 266 1294 256 1229 198 1275 -58 45 -45 52 -870 -402 -422 -232 -776 -422
-785 -422 -10 -1 -261 314 -687 861 -436 560 -678 864 -693 868 -41 12 -53 13
-75 6z"/>
<path d="M720 5421 c-55 -30 -667 -663 -690 -713 -25 -55 -25 -131 -1 -183 12
-26 133 -154 352 -372 298 -296 339 -333 379 -343 91 -24 191 11 244 88 24 34
31 56 34 106 7 111 3 117 -256 378 l-235 237 230 238 c127 131 238 253 248
272 27 53 18 166 -17 217 -47 66 -90 89 -177 92 -59 2 -84 -2 -111 -17z"/>
<path d="M9225 5426 c-40 -17 -95 -72 -111 -113 -19 -43 -18 -135 2 -181 10
-24 97 -120 247 -269 l231 -233 -44 -47 c-25 -26 -131 -136 -236 -243 -211
-216 -219 -228 -212 -336 5 -78 41 -136 108 -174 55 -31 156 -34 206 -7 46 24
665 659 692 708 26 50 30 132 7 187 -20 46 -642 674 -697 703 -44 23 -147 25
-193 5z"/>
</g>
</svg>
